<?xml version="1.0" standalone="no"?>
<!DOCTYPE svg PUBLIC "-//W3C//DTD SVG 20010904//EN"
 "http://www.w3.org/TR/2001/REC-SVG-20010904/DTD/svg10.dtd">
<svg version="1.0" xmlns="http://www.w3.org/2000/svg"
 width="501.000000pt" height="498.000000pt" viewBox="0 0 501.000000 498.000000"
 preserveAspectRatio="xMidYMid meet">

<g transform="translate(0.000000,498.000000) scale(0.100000,-0.100000)"
fill="#000000" stroke="none">
<path d="M2186 4805 c-103 -36 -156 -119 -156 -242 0 -48 -2 -52 -30 -62 -18
-6 -34 -21 -40 -36 -14 -37 -13 -338 1 -369 7 -13 25 -30 40 -37 l29 -11 0
-429 0 -429 -631 0 c-426 0 -644 -4 -674 -11 -54 -14 -118 -67 -148 -123 -21
-39 -22 -53 -22 -251 0 -198 1 -212 22 -251 30 -56 94 -109 148 -123 26 -6
139 -11 272 -11 125 0 454 -3 731 -7 l502 -6 -5 -96 c-14 -258 -29 -451 -35
-451 -4 0 -108 72 -231 160 l-224 161 -505 -3 c-498 -3 -506 -3 -546 -25 -51
-27 -98 -80 -115 -130 -10 -27 -14 -93 -14 -225 l0 -188 88 -88 88 -88 -54
-86 c-79 -126 -109 -224 -115 -375 -5 -144 12 -238 64 -351 135 -295 414 -465
739 -449 187 9 352 78 484 203 38 35 72 64 77 64 4 0 33 -20 63 -43 79 -62 99
-70 161 -70 61 0 101 17 142 60 38 40 54 83 73 208 19 125 33 158 75 180 64
33 130 9 153 -57 9 -24 23 -90 32 -148 19 -119 40 -168 87 -203 89 -67 181
-56 290 34 53 44 68 47 86 19 22 -35 160 -138 234 -174 102 -50 175 -67 305
-73 94 -5 129 -2 209 17 247 57 452 234 540 466 90 240 64 492 -72 699 -24 38
-44 71 -44 75 0 4 36 45 80 91 45 46 83 94 86 105 3 12 4 104 2 205 -3 207
-13 241 -82 294 -70 53 -88 55 -616 55 l-488 0 -100 -75 c-110 -81 -317 -224
-337 -231 -11 -5 -21 100 -41 429 l-7 107 494 1 c272 0 611 4 754 8 240 6 263
8 301 28 51 27 87 69 109 126 14 37 16 76 13 248 -3 186 -5 207 -25 244 -24
46 -54 75 -103 101 -33 18 -75 19 -690 24 l-655 5 0 425 0 424 25 13 c47 23
50 36 50 221 0 100 -4 181 -10 193 -6 10 -24 26 -40 34 -28 15 -30 19 -30 78
0 38 -7 77 -19 102 -23 51 -89 111 -138 124 -60 17 -558 14 -607 -4z m1002
-2000 l0 -225 -74 0 -74 0 0 130 c0 126 -1 132 -25 155 l-24 25 -497 0 -498 0
-28 -27 c-28 -27 -28 -28 -28 -155 l0 -128 -70 0 -70 0 0 225 0 225 694 0 693
0 1 -225z m-1738 -1587 c65 -27 136 -102 160 -166 57 -151 -1 -307 -142 -383
-56 -29 -72 -33 -138 -33 -90 0 -147 22 -213 83 -63 58 -91 127 -91 221 -1 55
5 87 21 121 71 156 247 225 403 157z m2336 -3 c156 -69 221 -255 144 -411 -54
-110 -146 -167 -270 -168 -62 -1 -85 4 -132 27 -111 54 -172 152 -172 277 -1
62 4 85 27 132 74 151 248 213 403 143z"/>
</g>
</svg>
